<svg width="29" height="29" viewBox="0 0 29 29" fill="none" xmlns="http://www.w3.org/2000/svg">
<path fill-rule="evenodd" clip-rule="evenodd" d="M6.36763 2.06498C7.47536 1.1153 9.14322 1.24341 10.0929 2.35114C10.1717 2.44301 10.244 2.54019 10.3095 2.64199L12.3126 5.75766C13.0556 6.90547 12.9638 8.39333 12.0869 9.41592L11.2712 10.3274C10.5811 11.0986 10.5897 12.2747 11.2913 13.0574C11.9302 13.9486 12.6321 14.7766 13.3971 15.5416L13.7848 15.9189C14.4398 16.5388 15.1386 17.115 15.8813 17.6474C16.6249 18.3139 17.7235 18.355 18.4927 17.7658L18.6114 17.6675L19.5228 16.8518C20.4989 16.0147 21.8989 15.8931 23.0225 16.53L23.181 16.6262L26.2967 18.6292C26.3985 18.6947 26.4957 18.767 26.5876 18.8458C27.6953 19.7955 27.8234 21.4634 26.8737 22.5711C24.3069 25.1379 18.6792 26.1344 10.9602 18.5867L10.6544 18.2843C2.77831 10.4081 3.767 4.66562 6.36763 2.06498Z" fill="#FFFFF0" fill-opacity="0.45"/>
</svg>
