<svg width="29" height="26" viewBox="0 0 29 26" fill="none" xmlns="http://www.w3.org/2000/svg">
<path fill-rule="evenodd" clip-rule="evenodd" d="M12.1223 21.4542C18.4754 20.9334 23.5001 16.0337 23.5001 10C23.5001 7.5311 22.6587 5.25202 21.2293 3.38513C25.7286 4.50202 29.0001 7.98491 29.0001 13C29.0001 15.6775 27.9886 17.9137 25.9657 19.7085C25.7457 19.9037 25.5525 20.1272 25.3911 20.3732C24.4179 21.8568 24.7821 23.8302 26.1889 24.8742L26.3495 24.9863L26.0894 25.0335C24.0169 25.3648 22.1434 24.6026 20.469 22.7472C19.6753 22.9126 18.8489 23 18.0001 23C15.8385 23 13.8226 22.4333 12.1223 21.4542Z" fill="white"/>
<path fill-rule="evenodd" clip-rule="evenodd" d="M11 0C17.0751 0 22 4.47715 22 10C22 15.5228 17.0751 20 11 20C10.1511 20 9.32475 19.9126 8.5311 19.7471C6.7869 21.6799 4.82667 22.4264 2.6506 21.9863C4.49443 20.7768 4.3712 17.7738 2.813 16.2135C1.31385 14.7122 0 12.6427 0 10C0 3.84667 4.92487 0 11 0Z" fill="white"/>
</svg>
