<svg width="29" height="30" viewBox="0 0 29 30" fill="none" xmlns="http://www.w3.org/2000/svg">
<rect y="0.5" width="29" height="29" rx="6" fill="#34C759"/>
<path fill-rule="evenodd" clip-rule="evenodd" d="M7.61378 6.68951C8.38303 6.04014 9.5951 6.19054 10.321 7.02542C10.3812 7.09467 10.437 7.16753 10.4879 7.2435L12.0459 9.56867C12.6236 10.4254 12.6085 11.4996 12.0089 12.2097L11.4498 12.8415C10.9767 13.376 11.0236 14.2279 11.5587 14.8189C12.0521 15.4862 12.5889 16.1101 13.1692 16.6904L13.463 16.9769C13.9587 17.4485 14.4846 17.8898 15.0407 18.3009C15.6022 18.8092 16.3991 18.877 16.9357 18.4769L17.0182 18.4098L17.6499 17.8507C18.3278 17.2784 19.3373 17.2386 20.1728 17.7386L20.291 17.8137L22.6161 19.3718C22.6921 19.4227 22.765 19.4784 22.8342 19.5386C23.6691 20.2645 23.8195 21.4766 23.1701 22.2459C21.4002 24.0157 17.3599 24.5428 11.51 18.811L11.2782 18.5815C5.30316 12.6065 5.82061 8.48268 7.61378 6.68951Z" fill="white"/>
</svg>
