<svg width="21" height="24" viewBox="0 0 21 24" fill="none" xmlns="http://www.w3.org/2000/svg">
<path d="M18.835 14.4826L13.3022 20.0155C10.6506 22.667 6.35169 22.667 3.70017 20.0155C1.04866 17.364 1.04866 13.065 3.70017 10.4135L11.1478 2.96583C12.9169 1.19681 15.785 1.19681 17.554 2.96583C19.323 4.73485 19.323 7.603 17.554 9.37202L9.87174 17.0543C9.04059 17.8855 7.69303 17.8855 6.86188 17.0543C6.03073 16.2232 6.03073 14.8756 6.86188 14.0445L12.6294 8.27697C12.9223 7.98407 12.9223 7.5092 12.6294 7.21631C12.3365 6.92341 11.8616 6.92341 11.5687 7.21631L5.80122 12.9838C4.38428 14.4007 4.38428 16.698 5.80122 18.115C7.21815 19.5319 9.51546 19.5319 10.9324 18.115L18.6147 10.4327C20.9695 8.07787 20.9695 4.25998 18.6147 1.90517C16.2599 -0.449642 12.442 -0.449642 10.0872 1.90517L2.63951 9.35283C-0.597787 12.5901 -0.597787 17.8388 2.63951 21.0761C5.87681 24.3134 11.1255 24.3134 14.3628 21.0761L19.8957 15.5433C20.1886 15.2504 20.1886 14.7755 19.8957 14.4826C19.6028 14.1897 19.1279 14.1897 18.835 14.4826Z" fill="#7F7F7F"/>
</svg>
